STARTFONT 2.1
FONT -Patrick J. Thomas-mono_size_14_10_design_1_dark_pixel-Normal-R-Normal--20-200-72-72-P-0--
SIZE 20 72 72
FONTBOUNDINGBOX 16 19 1 -5
STARTPROPERTIES 24
FAMILY_NAME "mono_size_14_10_design_1_dark_pixel"
DEFAULT_CHAR -1
FOUNDRY "Patrick J. Thomas"
COPYRIGHT "Copyright (c) 2026, Patrick J. Thomas. All rights reserved."
CODEPAGE "MS Windows 1252 Western (ANSI)"
ENC_MODE 2
DESIGNER "Patrick J. Thomas"
CREATION_YEAR 2026
WEIGHT_NAME "Normal"
SLANT "R"
SETWIDTH_NAME "Normal"
SPACING "P"
WEIGHT 400
HI_VERSION 1
FONTNAME_REGISTRY "-"
BREAK_CHAR 32
PIXEL_SIZE 20
POINT_SIZE 200
FONT_ASCENT 15
FONT_DESCENT 5
RESOLUTION_X 72
RESOLUTION_Y 72
X_HEIGHT 10
CAP_HEIGHT 15
ENDPROPERTIES
CHARS 150
STARTCHAR .uni0020
ENCODING 32
SWIDTH 526 0
DWIDTH 10 0
BBX 0 0 0 0
BITMAP
ENDCHAR
STARTCHAR .uni0021
ENCODING 33
SWIDTH 526 0
DWIDTH 10 0
BBX 2 14 4 0
BITMAP
C000
C000
C000
C000
C000
C000
C000
C000
C000
C000
C000
0000
C000
C000
ENDCHAR
STARTCHAR .uni0022
ENCODING 34
SWIDTH 526 0
DWIDTH 10 0
BBX 6 4 2 10
BITMAP
CC00
CC00
CC00
CC00
ENDCHAR
STARTCHAR .uni0023
ENCODING 35
SWIDTH 526 0
DWIDTH 10 0
BBX 8 8 1 3
BITMAP
6600
FF00
FF00
6600
6600
FF00
FF00
6600
ENDCHAR
STARTCHAR .uni0024
ENCODING 36
SWIDTH 526 0
DWIDTH 10 0
BBX 8 14 1 0
BITMAP
1800
1800
3C00
7E00
FE00
F800
7C00
3E00
1F00
7F00
7E00
3C00
1800
1800
ENDCHAR
STARTCHAR .uni0025
ENCODING 37
SWIDTH 526 0
DWIDTH 10 0
BBX 8 8 1 3
BITMAP
C300
C700
0E00
1C00
3800
7000
E300
C300
ENDCHAR
STARTCHAR .uni0026
ENCODING 38
SWIDTH 526 0
DWIDTH 10 0
BBX 8 14 1 0
BITMAP
3000
7800
FC00
CC00
FC00
7800
7800
FF00
CF00
C600
C600
EF00
7F00
3800
ENDCHAR
STARTCHAR .uni0027
ENCODING 39
SWIDTH 526 0
DWIDTH 10 0
BBX 2 4 4 10
BITMAP
C000
C000
C000
C000
ENDCHAR
STARTCHAR .uni0028
ENCODING 40
SWIDTH 526 0
DWIDTH 10 0
BBX 6 18 2 -4
BITMAP
0C00
1C00
3800
7000
E000
C000
C000
C000
C000
C000
C000
C000
C000
E000
7000
3800
1C00
0C00
ENDCHAR
STARTCHAR .uni0029
ENCODING 41
SWIDTH 526 0
DWIDTH 10 0
BBX 6 18 2 -4
BITMAP
C000
E000
7000
3800
1C00
0C00
0C00
0C00
0C00
0C00
0C00
0C00
0C00
1C00
3800
7000
E000
C000
ENDCHAR
STARTCHAR .uni002A
ENCODING 42
SWIDTH 526 0
DWIDTH 10 0
BBX 8 8 1 3
BITMAP
1800
DB00
FF00
7E00
7E00
FF00
DB00
1800
ENDCHAR
STARTCHAR .uni002B
ENCODING 43
SWIDTH 526 0
DWIDTH 10 0
BBX 8 8 1 3
BITMAP
1800
1800
1800
FF00
FF00
1800
1800
1800
ENDCHAR
STARTCHAR .uni002C
ENCODING 44
SWIDTH 526 0
DWIDTH 10 0
BBX 4 4 3 -2
BITMAP
3000
7000
E000
C000
ENDCHAR
STARTCHAR .uni002D
ENCODING 45
SWIDTH 526 0
DWIDTH 10 0
BBX 8 2 1 6
BITMAP
FF00
FF00
ENDCHAR
STARTCHAR .uni002E
ENCODING 46
SWIDTH 526 0
DWIDTH 10 0
BBX 2 2 4 0
BITMAP
C000
C000
ENDCHAR
STARTCHAR .uni002F
ENCODING 47
SWIDTH 526 0
DWIDTH 10 0
BBX 8 8 1 3
BITMAP
0300
0700
0E00
1C00
3800
7000
E000
C000
ENDCHAR
STARTCHAR .uni0030
ENCODING 48
SWIDTH 526 0
DWIDTH 10 0
BBX 8 14 1 0
BITMAP
3C00
7E00
E700
C300
C700
CF00
DF00
FB00
F300
E300
C300
E700
7E00
3C00
ENDCHAR
STARTCHAR .uni0031
ENCODING 49
SWIDTH 526 0
DWIDTH 10 0
BBX 5 14 1 0
BITMAP
1800
3800
7800
F800
D800
1800
1800
1800
1800
1800
1800
1800
1800
1800
ENDCHAR
STARTCHAR .uni0032
ENCODING 50
SWIDTH 526 0
DWIDTH 10 0
BBX 8 14 1 0
BITMAP
3C00
7E00
E700
C300
0300
0700
0E00
1C00
3800
7000
E000
C000
FF00
FF00
ENDCHAR
STARTCHAR .uni0033
ENCODING 51
SWIDTH 526 0
DWIDTH 10 0
BBX 8 14 1 0
BITMAP
3C00
7E00
E700
C300
0300
0700
1E00
1E00
0700
0300
C300
E700
7E00
3C00
ENDCHAR
STARTCHAR .uni0034
ENCODING 52
SWIDTH 526 0
DWIDTH 10 0
BBX 8 14 1 0
BITMAP
0600
0E00
1E00
3E00
7600
E600
FF00
FF00
0600
0600
0600
0600
0600
0600
ENDCHAR
STARTCHAR .uni0035
ENCODING 53
SWIDTH 526 0
DWIDTH 10 0
BBX 8 14 1 0
BITMAP
FF00
FF00
C000
C000
C000
C000
FC00
FE00
0700
0300
C300
E700
7E00
3C00
ENDCHAR
STARTCHAR .uni0036
ENCODING 54
SWIDTH 526 0
DWIDTH 10 0
BBX 8 14 1 0
BITMAP
3C00
7E00
E700
C300
C000
C000
FC00
FE00
E700
C300
C300
E700
7E00
3C00
ENDCHAR
STARTCHAR .uni0037
ENCODING 55
SWIDTH 526 0
DWIDTH 10 0
BBX 8 14 1 0
BITMAP
FF00
FF00
0300
0300
0700
0E00
1C00
1800
1800
1800
1800
1800
1800
1800
ENDCHAR
STARTCHAR .uni0038
ENCODING 56
SWIDTH 526 0
DWIDTH 10 0
BBX 8 14 1 0
BITMAP
3C00
7E00
E700
C300
C300
E700
7E00
7E00
E700
C300
C300
E700
7E00
3C00
ENDCHAR
STARTCHAR .uni0039
ENCODING 57
SWIDTH 526 0
DWIDTH 10 0
BBX 8 14 1 0
BITMAP
3C00
7E00
E700
C300
C300
E700
7F00
3F00
0300
0300
C300
E700
7E00
3C00
ENDCHAR
STARTCHAR .uni003A
ENCODING 58
SWIDTH 526 0
DWIDTH 10 0
BBX 2 8 4 3
BITMAP
C000
C000
0000
0000
0000
0000
C000
C000
ENDCHAR
STARTCHAR .uni003B
ENCODING 59
SWIDTH 526 0
DWIDTH 10 0
BBX 4 13 2 -3
BITMAP
3000
3000
0000
0000
0000
0000
0000
0000
0000
3000
7000
E000
C000
ENDCHAR
STARTCHAR .uni003C
ENCODING 60
SWIDTH 526 0
DWIDTH 10 0
BBX 6 10 2 2
BITMAP
0C00
1C00
3800
7000
E000
E000
7000
3800
1C00
0C00
ENDCHAR
STARTCHAR .uni003D
ENCODING 61
SWIDTH 526 0
DWIDTH 10 0
BBX 8 6 1 4
BITMAP
FF00
FF00
0000
0000
FF00
FF00
ENDCHAR
STARTCHAR .uni003E
ENCODING 62
SWIDTH 526 0
DWIDTH 10 0
BBX 6 10 2 2
BITMAP
C000
E000
7000
3800
1C00
1C00
3800
7000
E000
C000
ENDCHAR
STARTCHAR .uni003F
ENCODING 63
SWIDTH 526 0
DWIDTH 10 0
BBX 8 14 1 0
BITMAP
3C00
7E00
E700
C300
C300
0700
0E00
1C00
1800
1800
1800
0000
1800
1800
ENDCHAR
STARTCHAR .uni0040
ENCODING 64
SWIDTH 526 0
DWIDTH 10 0
BBX 8 14 1 0
BITMAP
1C00
3E00
7700
EF00
DF00
FB00
F300
F300
FB00
DF00
EF00
7000
3E00
1E00
ENDCHAR
STARTCHAR .uni0041
ENCODING 65
SWIDTH 526 0
DWIDTH 10 0
BBX 8 14 1 0
BITMAP
3C00
7E00
E700
C300
C300
C300
FF00
FF00
C300
C300
C300
C300
C300
C300
ENDCHAR
STARTCHAR .uni0042
ENCODING 66
SWIDTH 526 0
DWIDTH 10 0
BBX 8 14 1 0
BITMAP
FC00
FE00
C700
C300
C300
C700
FE00
FE00
C700
C300
C300
C700
FE00
FC00
ENDCHAR
STARTCHAR .uni0043
ENCODING 67
SWIDTH 526 0
DWIDTH 10 0
BBX 8 14 1 0
BITMAP
3C00
7E00
E700
C300
C000
C000
C000
C000
C000
C000
C300
E700
7E00
3C00
ENDCHAR
STARTCHAR .uni0044
ENCODING 68
SWIDTH 526 0
DWIDTH 10 0
BBX 8 14 1 0
BITMAP
FC00
FE00
C700
C300
C300
C300
C300
C300
C300
C300
C300
C700
FE00
FC00
ENDCHAR
STARTCHAR .uni0045
ENCODING 69
SWIDTH 526 0
DWIDTH 10 0
BBX 8 14 1 0
BITMAP
FF00
FF00
C000
C000
C000
C000
FF00
FF00
C000
C000
C000
C000
FF00
FF00
ENDCHAR
STARTCHAR .uni0046
ENCODING 70
SWIDTH 526 0
DWIDTH 10 0
BBX 8 14 1 0
BITMAP
FF00
FF00
C000
C000
C000
C000
FF00
FF00
C000
C000
C000
C000
C000
C000
ENDCHAR
STARTCHAR .uni0047
ENCODING 71
SWIDTH 526 0
DWIDTH 10 0
BBX 8 14 1 0
BITMAP
3C00
7E00
E700
C300
C000
C000
CF00
CF00
C300
C300
C300
E700
7E00
3C00
ENDCHAR
STARTCHAR .uni0048
ENCODING 72
SWIDTH 526 0
DWIDTH 10 0
BBX 8 14 1 0
BITMAP
C300
C300
C300
C300
C300
C300
FF00
FF00
C300
C300
C300
C300
C300
C300
ENDCHAR
STARTCHAR .uni0049
ENCODING 73
SWIDTH 526 0
DWIDTH 10 0
BBX 8 14 1 0
BITMAP
FF00
FF00
1800
1800
1800
1800
1800
1800
1800
1800
1800
1800
FF00
FF00
ENDCHAR
STARTCHAR .uni004A
ENCODING 74
SWIDTH 526 0
DWIDTH 10 0
BBX 8 14 1 0
BITMAP
0300
0300
0300
0300
0300
0300
0300
0300
0300
C300
C300
E700
7E00
3C00
ENDCHAR
STARTCHAR .uni004B
ENCODING 75
SWIDTH 526 0
DWIDTH 10 0
BBX 8 14 1 0
BITMAP
C300
C700
CE00
DC00
F800
F000
E000
E000
F000
F800
DC00
CE00
C700
C300
ENDCHAR
STARTCHAR .uni004C
ENCODING 76
SWIDTH 526 0
DWIDTH 10 0
BBX 8 14 1 0
BITMAP
C000
C000
C000
C000
C000
C000
C000
C000
C000
C000
C000
C000
FF00
FF00
ENDCHAR
STARTCHAR .uni004D
ENCODING 77
SWIDTH 526 0
DWIDTH 10 0
BBX 8 14 1 0
BITMAP
C300
E700
FF00
FF00
DB00
C300
C300
C300
C300
C300
C300
C300
C300
C300
ENDCHAR
STARTCHAR .uni004E
ENCODING 78
SWIDTH 526 0
DWIDTH 10 0
BBX 8 14 1 0
BITMAP
C300
E300
F300
FB00
DF00
CF00
C700
C300
C300
C300
C300
C300
C300
C300
ENDCHAR
STARTCHAR .uni004F
ENCODING 79
SWIDTH 526 0
DWIDTH 10 0
BBX 8 14 1 0
BITMAP
3C00
7E00
E700
C300
C300
C300
C300
C300
C300
C300
C300
E700
7E00
3C00
ENDCHAR
STARTCHAR .uni0050
ENCODING 80
SWIDTH 526 0
DWIDTH 10 0
BBX 8 14 1 0
BITMAP
FC00
FE00
C700
C300
C300
C700
FE00
FC00
C000
C000
C000
C000
C000
C000
ENDCHAR
STARTCHAR .uni0051
ENCODING 81
SWIDTH 526 0
DWIDTH 10 0
BBX 8 14 1 0
BITMAP
3C00
7E00
E700
C300
C300
C300
C300
C300
C300
C300
CF00
EF00
7F00
3F00
ENDCHAR
STARTCHAR .uni0052
ENCODING 82
SWIDTH 526 0
DWIDTH 10 0
BBX 8 14 1 0
BITMAP
FC00
FE00
C700
C300
C300
C700
FE00
FE00
C700
C300
C300
C300
C300
C300
ENDCHAR
STARTCHAR .uni0053
ENCODING 83
SWIDTH 526 0
DWIDTH 10 0
BBX 8 14 1 0
BITMAP
3C00
7E00
E700
C300
C000
E000
7C00
3E00
0700
0300
C300
E700
7E00
3C00
ENDCHAR
STARTCHAR .uni0054
ENCODING 84
SWIDTH 526 0
DWIDTH 10 0
BBX 8 14 1 0
BITMAP
FF00
FF00
1800
1800
1800
1800
1800
1800
1800
1800
1800
1800
1800
1800
ENDCHAR
STARTCHAR .uni0055
ENCODING 85
SWIDTH 526 0
DWIDTH 10 0
BBX 8 14 1 0
BITMAP
C300
C300
C300
C300
C300
C300
C300
C300
C300
C300
C300
E700
7E00
3C00
ENDCHAR
STARTCHAR .uni0056
ENCODING 86
SWIDTH 526 0
DWIDTH 10 0
BBX 8 14 1 0
BITMAP
C300
C300
C300
C300
C300
C300
C300
C300
C300
C300
E700
7E00
3C00
1800
ENDCHAR
STARTCHAR .uni0057
ENCODING 87
SWIDTH 526 0
DWIDTH 10 0
BBX 8 14 1 0
BITMAP
C300
C300
C300
C300
C300
C300
C300
C300
C300
DB00
FF00
FF00
E700
C300
ENDCHAR
STARTCHAR .uni0058
ENCODING 88
SWIDTH 526 0
DWIDTH 10 0
BBX 8 14 1 0
BITMAP
C300
C300
C300
C300
E700
7E00
3C00
3C00
7E00
E700
C300
C300
C300
C300
ENDCHAR
STARTCHAR .uni0059
ENCODING 89
SWIDTH 526 0
DWIDTH 10 0
BBX 8 14 1 0
BITMAP
C300
C300
C300
C300
E700
7E00
3C00
1800
1800
1800
1800
1800
1800
1800
ENDCHAR
STARTCHAR .uni005A
ENCODING 90
SWIDTH 526 0
DWIDTH 10 0
BBX 8 14 1 0
BITMAP
FF00
FF00
0300
0300
0700
0E00
1C00
3800
7000
E000
C000
C000
FF00
FF00
ENDCHAR
STARTCHAR .uni005B
ENCODING 91
SWIDTH 526 0
DWIDTH 10 0
BBX 4 18 3 -4
BITMAP
F000
F000
C000
C000
C000
C000
C000
C000
C000
C000
C000
C000
C000
C000
C000
C000
F000
F000
ENDCHAR
STARTCHAR .uni005C
ENCODING 92
SWIDTH 526 0
DWIDTH 10 0
BBX 8 8 1 3
BITMAP
C000
E000
7000
3800
1C00
0E00
0700
0300
ENDCHAR
STARTCHAR .uni005D
ENCODING 93
SWIDTH 526 0
DWIDTH 10 0
BBX 4 18 3 -4
BITMAP
F000
F000
3000
3000
3000
3000
3000
3000
3000
3000
3000
3000
3000
3000
3000
3000
F000
F000
ENDCHAR
STARTCHAR .uni005E
ENCODING 94
SWIDTH 526 0
DWIDTH 10 0
BBX 8 5 1 9
BITMAP
1800
3C00
7E00
E700
C300
ENDCHAR
STARTCHAR .uni005F
ENCODING 95
SWIDTH 526 0
DWIDTH 10 0
BBX 8 2 1 0
BITMAP
FF00
FF00
ENDCHAR
STARTCHAR .uni0060
ENCODING 96
SWIDTH 526 0
DWIDTH 10 0
BBX 4 4 3 10
BITMAP
C000
E000
7000
3000
ENDCHAR
STARTCHAR .uni0061
ENCODING 97
SWIDTH 526 0
DWIDTH 10 0
BBX 8 10 1 0
BITMAP
3C00
3E00
0700
0300
3F00
7F00
E300
E300
7F00
3F00
ENDCHAR
STARTCHAR .uni0062
ENCODING 98
SWIDTH 526 0
DWIDTH 10 0
BBX 8 14 1 0
BITMAP
C000
C000
C000
C000
FC00
FE00
C700
C300
C300
C300
C300
C700
FE00
FC00
ENDCHAR
STARTCHAR .uni0063
ENCODING 99
SWIDTH 526 0
DWIDTH 10 0
BBX 8 10 1 0
BITMAP
3C00
7E00
E700
C300
C000
C000
C300
E700
7E00
3C00
ENDCHAR
STARTCHAR .uni0064
ENCODING 100
SWIDTH 526 0
DWIDTH 10 0
BBX 8 14 1 0
BITMAP
0300
0300
0300
0300
3F00
7F00
E300
C300
C300
C300
C300
E300
7F00
3F00
ENDCHAR
STARTCHAR .uni0065
ENCODING 101
SWIDTH 526 0
DWIDTH 10 0
BBX 8 10 1 0
BITMAP
3C00
7E00
E700
C300
FF00
FF00
C000
E000
7E00
3E00
ENDCHAR
STARTCHAR .uni0066
ENCODING 102
SWIDTH 526 0
DWIDTH 10 0
BBX 8 14 1 0
BITMAP
0F00
1F00
3800
3000
FC00
FC00
3000
3000
3000
3000
3000
3000
3000
3000
ENDCHAR
STARTCHAR .uni0067
ENCODING 103
SWIDTH 526 0
DWIDTH 10 0
BBX 8 14 1 -4
BITMAP
3F00
7F00
E300
C300
C300
C300
C300
E300
7F00
3F00
0300
0700
7E00
7C00
ENDCHAR
STARTCHAR .uni0068
ENCODING 104
SWIDTH 526 0
DWIDTH 10 0
BBX 8 14 1 0
BITMAP
C000
C000
C000
C000
FC00
FE00
C700
C300
C300
C300
C300
C300
C300
C300
ENDCHAR
STARTCHAR .uni0069
ENCODING 105
SWIDTH 526 0
DWIDTH 10 0
BBX 8 13 1 0
BITMAP
1800
1800
0000
7800
7800
1800
1800
1800
1800
1800
1800
FF00
FF00
ENDCHAR
STARTCHAR .uni006A
ENCODING 106
SWIDTH 526 0
DWIDTH 10 0
BBX 6 18 2 -5
BITMAP
0C00
0C00
0000
3C00
3C00
0C00
0C00
0C00
0C00
0C00
0C00
0C00
0C00
0C00
0C00
1C00
F800
F000
ENDCHAR
STARTCHAR .uni006B
ENCODING 107
SWIDTH 526 0
DWIDTH 10 0
BBX 8 14 1 0
BITMAP
C000
C000
C000
C000
C300
C700
CE00
DC00
F800
F800
DC00
CE00
C700
C300
ENDCHAR
STARTCHAR .uni006C
ENCODING 108
SWIDTH 526 0
DWIDTH 10 0
BBX 8 14 1 0
BITMAP
7800
7800
1800
1800
1800
1800
1800
1800
1800
1800
1800
1800
FF00
FF00
ENDCHAR
STARTCHAR .uni006D
ENCODING 109
SWIDTH 526 0
DWIDTH 10 0
BBX 8 10 1 0
BITMAP
3C00
7E00
FF00
DB00
DB00
DB00
DB00
DB00
DB00
DB00
ENDCHAR
STARTCHAR .uni006E
ENCODING 110
SWIDTH 526 0
DWIDTH 10 0
BBX 8 10 1 0
BITMAP
FC00
FE00
C700
C300
C300
C300
C300
C300
C300
C300
ENDCHAR
STARTCHAR .uni006F
ENCODING 111
SWIDTH 526 0
DWIDTH 10 0
BBX 8 10 1 0
BITMAP
3C00
7E00
E700
C300
C300
C300
C300
E700
7E00
3C00
ENDCHAR
STARTCHAR .uni0070
ENCODING 112
SWIDTH 526 0
DWIDTH 10 0
BBX 8 14 1 -4
BITMAP
FC00
FE00
C700
C300
C300
C300
C300
C700
FE00
FC00
C000
C000
C000
C000
ENDCHAR
STARTCHAR .uni0071
ENCODING 113
SWIDTH 526 0
DWIDTH 10 0
BBX 8 14 1 -4
BITMAP
3F00
7F00
E300
C300
C300
C300
C300
E300
7F00
3F00
0300
0300
0300
0300
ENDCHAR
STARTCHAR .uni0072
ENCODING 114
SWIDTH 526 0
DWIDTH 10 0
BBX 8 10 1 0
BITMAP
FC00
FE00
C700
C300
C000
C000
C000
C000
C000
C000
ENDCHAR
STARTCHAR .uni0073
ENCODING 115
SWIDTH 526 0
DWIDTH 10 0
BBX 8 10 1 0
BITMAP
3C00
7E00
E700
E200
7C00
3E00
4700
E700
7E00
3C00
ENDCHAR
STARTCHAR .uni0074
ENCODING 116
SWIDTH 526 0
DWIDTH 10 0
BBX 8 14 1 0
BITMAP
1800
1800
1800
1800
FF00
FF00
1800
1800
1800
1800
1800
1800
1800
1800
ENDCHAR
STARTCHAR .uni0075
ENCODING 117
SWIDTH 526 0
DWIDTH 10 0
BBX 8 10 1 0
BITMAP
C300
C300
C300
C300
C300
C300
C300
E700
7E00
3C00
ENDCHAR
STARTCHAR .uni0076
ENCODING 118
SWIDTH 526 0
DWIDTH 10 0
BBX 8 10 1 0
BITMAP
C300
C300
C300
C300
C300
C300
E700
7E00
3C00
1800
ENDCHAR
STARTCHAR .uni0077
ENCODING 119
SWIDTH 526 0
DWIDTH 10 0
BBX 8 10 1 0
BITMAP
DB00
DB00
DB00
DB00
DB00
DB00
DB00
FF00
7E00
3C00
ENDCHAR
STARTCHAR .uni0078
ENCODING 120
SWIDTH 526 0
DWIDTH 10 0
BBX 8 10 1 0
BITMAP
C300
C300
E700
7E00
3C00
3C00
7E00
E700
C300
C300
ENDCHAR
STARTCHAR .uni0079
ENCODING 121
SWIDTH 526 0
DWIDTH 10 0
BBX 8 14 1 -4
BITMAP
C300
C300
C300
C300
C300
C300
C300
E300
7F00
3F00
0300
0700
7E00
7C00
ENDCHAR
STARTCHAR .uni007A
ENCODING 122
SWIDTH 526 0
DWIDTH 10 0
BBX 8 10 1 0
BITMAP
FF00
FF00
0700
0E00
1C00
3800
7000
E000
FF00
FF00
ENDCHAR
STARTCHAR .uni007B
ENCODING 123
SWIDTH 526 0
DWIDTH 10 0
BBX 6 18 2 -4
BITMAP
0C00
1C00
3800
3000
3000
3000
3000
7000
E000
E000
7000
3000
3000
3000
3000
3800
1C00
0C00
ENDCHAR
STARTCHAR .uni007C
ENCODING 124
SWIDTH 526 0
DWIDTH 10 0
BBX 2 18 4 -4
BITMAP
C000
C000
C000
C000
C000
C000
C000
C000
C000
C000
C000
C000
C000
C000
C000
C000
C000
C000
ENDCHAR
STARTCHAR .uni007D
ENCODING 125
SWIDTH 526 0
DWIDTH 10 0
BBX 6 18 2 -4
BITMAP
C000
E000
7000
3000
3000
3000
3000
3800
1C00
1C00
3800
3000
3000
3000
3000
7000
E000
C000
ENDCHAR
STARTCHAR .uni007E
ENCODING 126
SWIDTH 526 0
DWIDTH 10 0
BBX 8 4 1 5
BITMAP
7000
FB00
DF00
0E00
ENDCHAR
STARTCHAR .uni00AC
ENCODING 172
SWIDTH 526 0
DWIDTH 10 0
BBX 8 4 1 5
BITMAP
FF00
FF00
0300
0300
ENDCHAR
STARTCHAR .uni00B7
ENCODING 183
SWIDTH 526 0
DWIDTH 10 0
BBX 2 2 4 6
BITMAP
C000
C000
ENDCHAR
STARTCHAR .uni00D7
ENCODING 215
SWIDTH 526 0
DWIDTH 10 0
BBX 6 6 2 4
BITMAP
CC00
FC00
7800
7800
FC00
CC00
ENDCHAR
STARTCHAR .uni0393
ENCODING 915
SWIDTH 526 0
DWIDTH 10 0
BBX 8 14 1 0
BITMAP
FF00
FF00
C000
C000
C000
C000
C000
C000
C000
C000
C000
C000
C000
C000
ENDCHAR
STARTCHAR .uni0394
ENCODING 916
SWIDTH 1111 0
DWIDTH 20 0
BBX 14 14 3 0
BITMAP
0300
0300
0780
0780
0FC0
0CC0
1CE0
1860
3870
3030
7038
6018
FFFC
FFFC
ENDCHAR
STARTCHAR .uni039B
ENCODING 923
SWIDTH 1111 0
DWIDTH 20 0
BBX 14 14 3 0
BITMAP
0300
0300
0780
0780
0FC0
0CC0
1CE0
1860
3870
3030
7038
6018
E01C
E01C
ENDCHAR
STARTCHAR .uni03A0
ENCODING 928
SWIDTH 526 0
DWIDTH 10 0
BBX 8 14 1 0
BITMAP
FF00
FF00
C300
C300
C300
C300
C300
C300
C300
C300
C300
C300
C300
C300
ENDCHAR
STARTCHAR .uni03A3
ENCODING 931
SWIDTH 526 0
DWIDTH 10 0
BBX 8 14 1 0
BITMAP
FF00
FF00
E000
7000
3800
1C00
0E00
0E00
1C00
3800
7000
E000
FF00
FF00
ENDCHAR
STARTCHAR .uni03B1
ENCODING 945
SWIDTH 526 0
DWIDTH 10 0
BBX 8 10 1 0
BITMAP
3B00
7F00
EF00
C600
C600
C600
C600
EF00
7F00
3B00
ENDCHAR
STARTCHAR .uni03B2
ENCODING 946
SWIDTH 526 0
DWIDTH 10 0
BBX 8 16 1 -2
BITMAP
7800
FC00
CE00
CE00
DC00
F800
F800
DC00
CE00
C700
C700
CE00
FC00
F800
C000
C000
ENDCHAR
STARTCHAR .uni03B3
ENCODING 947
SWIDTH 526 0
DWIDTH 10 0
BBX 8 12 1 -2
BITMAP
C300
C300
C300
C300
C300
C300
E700
7E00
3C00
3800
F000
E000
ENDCHAR
STARTCHAR .uni03B4
ENCODING 948
SWIDTH 526 0
DWIDTH 10 0
BBX 8 14 1 0
BITMAP
3E00
7E00
E000
C000
E000
7C00
7E00
E700
C300
C300
C300
E700
7E00
3C00
ENDCHAR
STARTCHAR .uni03B5
ENCODING 949
SWIDTH 526 0
DWIDTH 10 0
BBX 8 10 1 0
BITMAP
3F00
7F00
E000
C000
FF00
FF00
C000
E000
7F00
3F00
ENDCHAR
STARTCHAR .uni03B8
ENCODING 952
SWIDTH 526 0
DWIDTH 10 0
BBX 8 14 1 0
BITMAP
3C00
7E00
E700
C300
C300
C300
FF00
FF00
C300
C300
C300
E700
7E00
3C00
ENDCHAR
STARTCHAR .uni03BB
ENCODING 955
SWIDTH 526 0
DWIDTH 10 0
BBX 8 12 1 0
BITMAP
C000
C000
C000
E000
7000
3800
3C00
7E00
E700
C300
C300
C300
ENDCHAR
STARTCHAR .uni03BC
ENCODING 956
SWIDTH 526 0
DWIDTH 10 0
BBX 8 12 1 -2
BITMAP
C300
C300
C300
C300
C300
C300
C300
C700
FE00
FC00
C000
C000
ENDCHAR
STARTCHAR .uni03BD
ENCODING 957
SWIDTH 526 0
DWIDTH 10 0
BBX 8 10 1 0
BITMAP
C300
C300
C300
C300
C300
C700
CE00
DC00
F800
F000
ENDCHAR
STARTCHAR .uni03C0
ENCODING 960
SWIDTH 526 0
DWIDTH 10 0
BBX 8 10 1 0
BITMAP
FF00
FF00
6600
6600
6600
6600
6600
6600
6600
6600
ENDCHAR
STARTCHAR .uni03C3
ENCODING 963
SWIDTH 526 0
DWIDTH 10 0
BBX 8 10 1 0
BITMAP
3F00
7F00
E600
C600
C600
C600
C600
EE00
7C00
3800
ENDCHAR
STARTCHAR .uni03C4
ENCODING 964
SWIDTH 526 0
DWIDTH 10 0
BBX 8 10 1 0
BITMAP
FF00
FF00
1800
1800
1800
1800
1800
1800
1800
1800
ENDCHAR
STARTCHAR .uni03C6
ENCODING 966
SWIDTH 526 0
DWIDTH 10 0
BBX 8 14 1 0
BITMAP
0600
CF00
DF00
DB00
DB00
DB00
FF00
7E00
3C00
1800
1800
1800
1800
1800
ENDCHAR
STARTCHAR .uni03C7
ENCODING 967
SWIDTH 526 0
DWIDTH 10 0
BBX 8 14 1 0
BITMAP
0300
0300
0300
C300
E700
7E00
3C00
3C00
7E00
E700
C300
C000
C000
C000
ENDCHAR
STARTCHAR .uni03C8
ENCODING 968
SWIDTH 526 0
DWIDTH 10 0
BBX 8 14 1 0
BITMAP
DB00
DB00
DB00
DB00
DB00
DB00
FF00
7E00
3C00
1800
1800
1800
1800
1800
ENDCHAR
STARTCHAR .uni201C
ENCODING 8220
SWIDTH 526 0
DWIDTH 10 0
BBX 8 4 1 10
BITMAP
CC00
EE00
7700
3300
ENDCHAR
STARTCHAR .uni201D
ENCODING 8221
SWIDTH 526 0
DWIDTH 10 0
BBX 8 4 1 10
BITMAP
3300
7700
EE00
CC00
ENDCHAR
STARTCHAR .uni2102
ENCODING 8450
SWIDTH 526 0
DWIDTH 10 0
BBX 8 14 1 0
BITMAP
3C00
7E00
F700
F300
F000
F000
F000
F000
F000
F000
F300
F700
7E00
3C00
ENDCHAR
STARTCHAR .uni2115
ENCODING 8469
SWIDTH 526 0
DWIDTH 10 0
BBX 8 14 1 0
BITMAP
C300
E300
F300
FB00
FF00
FF00
DF00
CF00
C700
C300
C300
C300
C300
C300
ENDCHAR
STARTCHAR .uni211A
ENCODING 8474
SWIDTH 526 0
DWIDTH 10 0
BBX 8 14 1 0
BITMAP
3C00
7E00
F700
F300
F300
F300
F300
F300
F300
F300
FF00
FF00
7F00
3F00
ENDCHAR
STARTCHAR .uni211D
ENCODING 8477
SWIDTH 526 0
DWIDTH 10 0
BBX 8 14 1 0
BITMAP
FC00
FE00
F700
F300
F300
F700
FE00
FE00
F700
F300
F300
F300
F300
F300
ENDCHAR
STARTCHAR .uni2124
ENCODING 8484
SWIDTH 526 0
DWIDTH 10 0
BBX 8 14 1 0
BITMAP
FF00
FF00
0300
0700
0F00
1F00
3E00
7C00
F800
F000
E000
C000
FF00
FF00
ENDCHAR
STARTCHAR .uni2190
ENCODING 8592
SWIDTH 526 0
DWIDTH 10 0
BBX 8 6 1 4
BITMAP
2000
6000
FF00
FF00
6000
2000
ENDCHAR
STARTCHAR .uni2192
ENCODING 8594
SWIDTH 526 0
DWIDTH 10 0
BBX 8 6 1 4
BITMAP
0400
0600
FF00
FF00
0600
0400
ENDCHAR
STARTCHAR .uni2194
ENCODING 8596
SWIDTH 526 0
DWIDTH 10 0
BBX 8 6 1 4
BITMAP
2400
6600
FF00
FF00
6600
2400
ENDCHAR
STARTCHAR .uni2200
ENCODING 8704
SWIDTH 1111 0
DWIDTH 20 0
BBX 14 14 3 0
BITMAP
E01C
E01C
6018
7038
3030
3870
1FE0
1FE0
0CC0
0FC0
0780
0780
0300
0300
ENDCHAR
STARTCHAR .uni2202
ENCODING 8706
SWIDTH 526 0
DWIDTH 10 0
BBX 8 14 1 0
BITMAP
3800
3C00
0E00
0700
0300
0300
3F00
7F00
E300
C300
C300
E300
7F00
3E00
ENDCHAR
STARTCHAR .uni2203
ENCODING 8707
SWIDTH 1111 0
DWIDTH 20 0
BBX 10 14 5 0
BITMAP
FFC0
FFC0
00C0
00C0
00C0
00C0
FFC0
FFC0
00C0
00C0
00C0
00C0
FFC0
FFC0
ENDCHAR
STARTCHAR .uni2205
ENCODING 8709
SWIDTH 1111 0
DWIDTH 20 0
BBX 14 14 3 0
BITMAP
0FCC
1FFC
3878
7078
E0FC
C1CC
C38C
C70C
CE0C
FC1C
7838
7870
FFE0
CFC0
ENDCHAR
STARTCHAR .uni2208
ENCODING 8712
SWIDTH 526 0
DWIDTH 10 0
BBX 8 10 1 2
BITMAP
1F00
3F00
7000
E000
FF00
FF00
E000
7000
3F00
1F00
ENDCHAR
STARTCHAR .uni2209
ENCODING 8713
SWIDTH 526 0
DWIDTH 10 0
BBX 8 10 1 2
BITMAP
1F00
3F00
7700
EE00
FF00
FF00
F000
F000
FF00
1F00
ENDCHAR
STARTCHAR .uni2218
ENCODING 8728
SWIDTH 526 0
DWIDTH 10 0
BBX 4 4 3 5
BITMAP
6000
F000
F000
6000
ENDCHAR
STARTCHAR .uni221E
ENCODING 8734
SWIDTH 1111 0
DWIDTH 20 0
BBX 14 8 3 3
BITMAP
3870
7CF8
EFDC
C78C
C78C
EFDC
7CF8
3870
ENDCHAR
STARTCHAR .uni2227
ENCODING 8743
SWIDTH 526 0
DWIDTH 10 0
BBX 8 5 1 3
BITMAP
1800
3C00
7E00
E700
C300
ENDCHAR
STARTCHAR .uni2228
ENCODING 8744
SWIDTH 526 0
DWIDTH 10 0
BBX 8 5 1 3
BITMAP
C300
E700
7E00
3C00
1800
ENDCHAR
STARTCHAR .uni2229
ENCODING 8745
SWIDTH 526 0
DWIDTH 10 0
BBX 8 12 1 0
BITMAP
3C00
7E00
E700
C300
C300
C300
C300
C300
C300
C300
C300
C300
ENDCHAR
STARTCHAR .uni222A
ENCODING 8746
SWIDTH 526 0
DWIDTH 10 0
BBX 8 12 1 0
BITMAP
C300
C300
C300
C300
C300
C300
C300
C300
C300
E700
7E00
3C00
ENDCHAR
STARTCHAR .uni2260
ENCODING 8800
SWIDTH 526 0
DWIDTH 10 0
BBX 8 10 1 2
BITMAP
1800
1800
FF00
FF00
1800
1800
FF00
FF00
1800
1800
ENDCHAR
STARTCHAR .uni2261
ENCODING 8801
SWIDTH 526 0
DWIDTH 10 0
BBX 8 8 1 3
BITMAP
FF00
FF00
0000
FF00
FF00
0000
FF00
FF00
ENDCHAR
STARTCHAR .uni2264
ENCODING 8804
SWIDTH 526 0
DWIDTH 10 0
BBX 6 13 2 -1
BITMAP
0C00
1C00
3800
7000
E000
E000
7000
3800
1C00
0C00
0000
FC00
FC00
ENDCHAR
STARTCHAR .uni2265
ENCODING 8805
SWIDTH 526 0
DWIDTH 10 0
BBX 6 13 2 -1
BITMAP
C000
E000
7000
3800
1C00
1C00
3800
7000
E000
C000
0000
FC00
FC00
ENDCHAR
STARTCHAR .uni2282
ENCODING 8834
SWIDTH 526 0
DWIDTH 10 0
BBX 8 12 1 0
BITMAP
1F00
3F00
7000
E000
C000
C000
C000
C000
E000
7000
3F00
1F00
ENDCHAR
STARTCHAR .uni2286
ENCODING 8838
SWIDTH 526 0
DWIDTH 10 0
BBX 8 15 1 -3
BITMAP
1F00
3F00
7000
E000
C000
C000
C000
C000
E000
7000
3F00
1F00
0000
1F00
1F00
ENDCHAR
STARTCHAR .uni22C2
ENCODING 8898
SWIDTH 526 0
DWIDTH 10 0
BBX 8 16 1 -4
BITMAP
3C00
7E00
E700
C300
C300
C300
C300
C300
C300
C300
C300
C300
C300
C300
C300
C300
ENDCHAR
STARTCHAR .uni22C3
ENCODING 8899
SWIDTH 526 0
DWIDTH 10 0
BBX 8 16 1 -4
BITMAP
C300
C300
C300
C300
C300
C300
C300
C300
C300
C300
C300
C300
C300
E700
7E00
3C00
ENDCHAR
STARTCHAR .uni27E8
ENCODING 10216
SWIDTH 526 0
DWIDTH 10 0
BBX 8 18 1 -4
BITMAP
0300
0700
0E00
1C00
3800
7000
E000
C000
C000
C000
C000
E000
7000
3800
1C00
0E00
0700
0300
ENDCHAR
STARTCHAR .uni27E9
ENCODING 10217
SWIDTH 526 0
DWIDTH 10 0
BBX 8 18 1 -4
BITMAP
C000
E000
7000
3800
1C00
0E00
0700
0300
0300
0300
0300
0700
0E00
1C00
3800
7000
E000
C000
ENDCHAR
ENDFONT
